<?xml version="1.0" encoding="utf-8"?>
<!-- Generator: Adobe Illustrator 16.0.0, SVG Export Plug-In . SVG Version: 6.00 Build 0)  -->
<!DOCTYPE svg PUBLIC "-//W3C//DTD SVG 1.1//EN" "http://www.w3.org/Graphics/SVG/1.1/DTD/svg11.dtd">
<svg version="1.1" id="Layer_1" xmlns="http://www.w3.org/2000/svg" xmlns:xlink="http://www.w3.org/1999/xlink" x="0px" y="0px"
	 width="30px" height="42.858px" viewBox="290.997 374.562 30 42.858" enable-background="new 290.997 374.562 30 42.858"
	 xml:space="preserve">
<path fill="#FFFFFF" d="M308.958,385.349c0.019,0.006,0.042,0.013,0.066,0.019c0.438,0.149,0.902,0.187,1.396,0.107
	c0.457-0.069,0.856-0.214,1.186-0.433c0.637-0.421,1.056-1.052,1.263-1.888c0.078-0.289,0.107-0.61,0.097-0.962
	c-0.063-0.21-0.128-0.422-0.191-0.637c-0.13-0.402-0.317-0.751-0.552-1.05c-0.477-0.591-1.201-0.915-2.18-0.979
	c-0.468-0.03-0.867,0.022-1.194,0.159c-0.757,0.312-1.313,0.832-1.665,1.562c-0.171,0.355-0.247,0.797-0.234,1.321
	c0.007,0.505,0.107,0.936,0.291,1.298C307.594,384.573,308.165,385.069,308.958,385.349z"/>
<path fill="#FFFFFF" d="M320.997,374.562h-3.325c0,0,0,16.612,0,16.881c-0.993,0-1.98,0-2.973,0c-0.016,0-0.038,0-0.053,0
	c-0.039-0.03-0.077-0.06-0.109-0.092c-0.246-0.229-0.469-0.479-0.67-0.759c-0.209-0.296-0.418-0.581-0.648-0.856
	c-0.117-0.153-0.241-0.3-0.372-0.446c-0.489-0.572-0.962-1.163-1.414-1.784c0,0,0-0.002,0-0.003
	c-0.055-0.074-0.114-0.146-0.174-0.221c-0.415-0.507-0.944-0.908-1.585-1.207c-0.044-0.023-0.09-0.04-0.144-0.061
	c-0.091-0.036-0.19-0.071-0.296-0.099c-0.055-0.013-0.109-0.024-0.162-0.04c-0.106-0.021-0.219-0.04-0.336-0.054
	c-0.117-0.013-0.24-0.019-0.369-0.023c-1.066-0.024-2.128-0.037-3.193-0.037c-1.062,0-2.128-0.007-3.193-0.02
	c-0.69-0.011-1.337,0.028-1.939,0.11c0,0,0,0-0.002,0c-0.222,0.03-0.424,0.086-0.607,0.165c-0.047,0.021-0.093,0.043-0.137,0.063
	c-0.088,0.045-0.176,0.091-0.258,0.145c-0.167,0.102-0.314,0.219-0.454,0.348c0,0-0.002-0.001-0.003,0
	c-0.103,0.095-0.196,0.2-0.284,0.314c-0.06,0.072-0.115,0.15-0.169,0.234c-0.104,0.16-0.195,0.337-0.27,0.527
	c-0.011,0.023-0.02,0.043-0.03,0.066c-0.192,0.355-0.379,0.706-0.564,1.047c-0.083,0.16-0.166,0.317-0.252,0.467
	c-0.381,0.687-0.756,1.381-1.128,2.085c-0.053,0.103-0.102,0.212-0.141,0.324c-0.039,0.112-0.074,0.233-0.098,0.36
	c-0.03,0.152-0.039,0.312-0.021,0.47c0.003,0.021,0.006,0.044,0.012,0.063c0.029,0.107,0.053,0.213,0.072,0.318
	c0.074,0.13,0.165,0.24,0.27,0.339c0.069,0.069,0.147,0.128,0.228,0.185c0.125,0.079,0.262,0.148,0.411,0.207
	c0.003,0,0.008,0.002,0.01,0.008c0.001,0.007,0.003,0.009,0.003,0.021c0.236,0,0.466,0,0.703,0c0.016,0,0.033,0,0.053,0
	c0.051-0.018,0.099-0.036,0.148-0.059c0.094-0.039,0.183-0.087,0.267-0.141c0.04-0.025,0.078-0.055,0.117-0.087
	c0.036-0.031,0.073-0.065,0.105-0.099c0.07-0.068,0.133-0.143,0.186-0.229c0.026-0.041,0.048-0.086,0.076-0.132
	c0.358-0.69,0.72-1.385,1.073-2.085c0.296-0.582,0.597-1.154,0.895-1.718c1.065,0,2.132,0,3.192,0c0.021,0,0.039,0,0.056,0
	c-0.313,0.751-0.621,1.509-0.922,2.276c-0.299,0.764-0.594,1.523-0.889,2.28c-0.157,0.404-0.327,0.798-0.502,1.179
	c0,0.001,0,0.002,0,0.003c-0.058,0.128-0.119,0.254-0.178,0.378c-0.018,0.271-0.037,0.541-0.059,0.812l0,0
	c-0.057,0.719-0.117,1.422-0.187,2.113c-0.099,0.979-0.193,1.954-0.279,2.92c-0.062,0.704-0.142,1.392-0.236,2.055
	c-0.207,0.063-0.457,0.094-0.756,0.086c-1.062-0.02-2.13-0.033-3.192-0.033c-0.886,0-1.767,0.021-2.648,0.053
	c-0.041,0-0.097,0.003-0.167,0.014c-0.24,0.023-0.448,0.087-0.631,0.191c-0.683,0.363-1.15,0.966-1.399,1.789
	c-0.067,0.209-0.13,0.415-0.2,0.617c-0.073,0.225-0.159,0.412-0.258,0.582c0.209,0.062,0.461,0.092,0.756,0.088
	c1.066-0.023,2.131-0.029,3.192-0.029c1.066,0,2.131,0,3.193,0c1.065,0,2.13,0.006,3.192,0.029c0.5,0.007,0.936-0.042,1.294-0.154
	c0.024-0.011,0.043-0.021,0.067-0.026c0.354-0.193,0.593-0.497,0.716-0.93c0.06-0.203,0.103-0.438,0.125-0.706
	c0.09-0.945,0.186-1.904,0.282-2.871c0.1-0.967,0.192-1.925,0.279-2.871c0.023-0.274,0.078-0.507,0.159-0.7
	c0.361,0.7,0.713,1.422,1.059,2.155c0.331,0.716,0.667,1.434,1.005,2.148c0.184,0.378,0.363,0.744,0.543,1.107
	c0.344,0.68,0.675,1.37,1.007,2.062c0.341,0.727,0.692,1.444,1.044,2.162c0.352,0.705,0.692,1.434,1.021,2.168
	c0.162,0.377,0.382,0.703,0.648,0.976c0.382,0.404,0.997,0.6,1.847,0.576c0.811-0.028,1.619-0.041,2.432-0.041
	c-0.33-0.729-0.674-1.452-1.026-2.163c-0.352-0.714-0.704-1.428-1.059-2.151c-0.322-0.656-0.647-1.327-0.983-2.001
	c-0.342-0.703-0.686-1.427-1.033-2.161c-0.337-0.71-0.674-1.426-1.008-2.146c-0.341-0.732-0.691-1.451-1.043-2.158
	c-0.352-0.713-0.703-1.434-1.045-2.152c0.078-0.201,0.149-0.399,0.225-0.599l0,0c0.212-0.574,0.433-1.138,0.646-1.695
	c0.31-0.776,0.624-1.533,0.953-2.264c0.012-0.03,0.022-0.061,0.037-0.092c0.121-0.342,0.257-0.671,0.414-0.979
	c0.48,0.581,0.965,1.162,1.444,1.749c0.243,0.295,0.484,0.595,0.716,0.901c0.461,0.603,1.15,0.967,2.062,1.084
	c0.27,0.034,0.537,0.049,0.81,0.049c0.861,0,1.786,0.01,2.647,0.026c0.024,0,0.038,0.012,0.055,0.028c0,0.005,0,0.092,0,0.098
	c0,0.197,0,22.525,0,22.525h3.325"/>
</svg>
