<?xml version="1.0" encoding="utf-8"?>
<!-- Generator: Adobe Illustrator 16.0.0, SVG Export Plug-In . SVG Version: 6.00 Build 0)  -->
<!DOCTYPE svg PUBLIC "-//W3C//DTD SVG 1.1//EN" "http://www.w3.org/Graphics/SVG/1.1/DTD/svg11.dtd">
<svg version="1.1" id="Layer_1" xmlns="http://www.w3.org/2000/svg" xmlns:xlink="http://www.w3.org/1999/xlink" x="0px" y="0px"
	 width="21.001px" height="30px" viewBox="295.497 380.988 21.001 30" enable-background="new 295.497 380.988 21.001 30"
	 xml:space="preserve">
<path fill="#FFFFFF" d="M308.07,388.54c0.013,0.004,0.029,0.009,0.046,0.014c0.307,0.104,0.632,0.13,0.978,0.074
	c0.319-0.048,0.6-0.149,0.83-0.303c0.446-0.295,0.739-0.736,0.885-1.322c0.055-0.202,0.074-0.427,0.067-0.674
	c-0.044-0.146-0.09-0.295-0.134-0.445c-0.091-0.282-0.222-0.526-0.387-0.735c-0.334-0.413-0.84-0.641-1.525-0.686
	c-0.328-0.021-0.607,0.016-0.837,0.111c-0.529,0.219-0.919,0.583-1.165,1.094c-0.12,0.248-0.173,0.558-0.164,0.925
	c0.005,0.354,0.075,0.655,0.204,0.909C307.115,387.997,307.515,388.344,308.07,388.54z"/>
<path fill="#FFFFFF" d="M316.498,380.988h-2.327c0,0,0,11.63,0,11.818c-0.695,0-1.387,0-2.081,0c-0.012,0-0.027,0-0.037,0
	c-0.027-0.021-0.055-0.042-0.077-0.064c-0.172-0.16-0.328-0.335-0.469-0.531c-0.146-0.207-0.293-0.406-0.454-0.6
	c-0.082-0.106-0.169-0.21-0.261-0.312c-0.342-0.4-0.673-0.814-0.989-1.249c0,0,0-0.001,0-0.002
	c-0.038-0.052-0.079-0.103-0.122-0.154c-0.29-0.355-0.661-0.636-1.109-0.846c-0.031-0.016-0.062-0.027-0.101-0.043
	c-0.064-0.025-0.133-0.05-0.207-0.068c-0.039-0.01-0.077-0.018-0.113-0.028c-0.075-0.016-0.154-0.028-0.235-0.038
	c-0.082-0.009-0.168-0.014-0.259-0.016c-0.746-0.018-1.489-0.026-2.235-0.026c-0.744,0-1.489-0.005-2.235-0.014
	c-0.483-0.008-0.936,0.02-1.357,0.076c0,0,0,0-0.001,0c-0.155,0.021-0.297,0.061-0.425,0.116c-0.033,0.015-0.065,0.029-0.097,0.044
	c-0.062,0.031-0.123,0.063-0.181,0.102c-0.116,0.071-0.219,0.153-0.317,0.243c0,0-0.002-0.001-0.002,0
	c-0.072,0.067-0.138,0.141-0.199,0.22c-0.042,0.051-0.081,0.105-0.118,0.164c-0.073,0.112-0.136,0.236-0.189,0.369
	c-0.007,0.017-0.014,0.03-0.021,0.046c-0.134,0.249-0.266,0.495-0.396,0.733c-0.057,0.112-0.116,0.222-0.176,0.327
	c-0.267,0.48-0.529,0.966-0.79,1.459c-0.037,0.072-0.071,0.148-0.099,0.228c-0.027,0.078-0.052,0.163-0.068,0.252
	c-0.021,0.105-0.027,0.218-0.015,0.329c0.002,0.014,0.004,0.03,0.009,0.043c0.02,0.075,0.037,0.15,0.05,0.224
	c0.052,0.091,0.115,0.168,0.189,0.237c0.048,0.048,0.103,0.089,0.159,0.13c0.088,0.055,0.184,0.103,0.288,0.145
	c0.002,0,0.006,0.001,0.007,0.006s0.002,0.006,0.002,0.014c0.165,0,0.326,0,0.492,0c0.012,0,0.023,0,0.038,0
	c0.035-0.012,0.068-0.025,0.103-0.041c0.066-0.027,0.128-0.061,0.187-0.098c0.028-0.019,0.055-0.039,0.082-0.062
	c0.025-0.021,0.052-0.046,0.074-0.069c0.049-0.048,0.093-0.1,0.13-0.16c0.018-0.028,0.033-0.061,0.054-0.093
	c0.25-0.482,0.504-0.97,0.75-1.46c0.208-0.407,0.419-0.808,0.627-1.202c0.746,0,1.493,0,2.235,0c0.015,0,0.027,0,0.039,0
	c-0.22,0.525-0.435,1.056-0.646,1.594c-0.21,0.534-0.416,1.065-0.623,1.596c-0.109,0.282-0.229,0.559-0.352,0.825
	c0,0.001,0,0.002,0,0.002c-0.04,0.09-0.083,0.178-0.124,0.265c-0.013,0.189-0.026,0.379-0.041,0.568l0,0
	c-0.04,0.504-0.082,0.996-0.132,1.479c-0.068,0.686-0.135,1.368-0.195,2.044c-0.043,0.493-0.099,0.976-0.164,1.439
	c-0.146,0.044-0.32,0.065-0.529,0.061c-0.743-0.015-1.491-0.023-2.235-0.023c-0.62,0-1.236,0.015-1.854,0.037
	c-0.028,0-0.066,0.002-0.116,0.01c-0.168,0.016-0.313,0.061-0.441,0.134c-0.479,0.254-0.805,0.676-0.979,1.252
	c-0.047,0.146-0.091,0.291-0.14,0.433c-0.051,0.157-0.111,0.288-0.181,0.407c0.146,0.043,0.322,0.064,0.529,0.062
	c0.746-0.016,1.491-0.021,2.233-0.021c0.747,0,1.493,0,2.236,0c0.745,0,1.491,0.005,2.234,0.021
	c0.351,0.005,0.656-0.029,0.906-0.108c0.017-0.008,0.03-0.015,0.046-0.018c0.249-0.136,0.416-0.348,0.502-0.651
	c0.042-0.142,0.072-0.307,0.088-0.494c0.062-0.661,0.13-1.333,0.196-2.01c0.071-0.678,0.135-1.348,0.196-2.01
	c0.017-0.192,0.055-0.354,0.111-0.49c0.252,0.49,0.499,0.995,0.741,1.509c0.231,0.501,0.467,1.004,0.704,1.503
	c0.128,0.265,0.254,0.521,0.38,0.775c0.24,0.477,0.473,0.96,0.705,1.443c0.238,0.51,0.483,1.012,0.73,1.514
	c0.246,0.494,0.484,1.005,0.715,1.518c0.113,0.265,0.267,0.492,0.454,0.684c0.267,0.283,0.697,0.42,1.292,0.403
	c0.568-0.02,1.134-0.029,1.703-0.029c-0.23-0.51-0.472-1.016-0.718-1.514c-0.247-0.5-0.493-1-0.741-1.506
	c-0.226-0.459-0.453-0.929-0.688-1.4c-0.239-0.492-0.48-0.999-0.724-1.514c-0.236-0.497-0.472-0.998-0.705-1.502
	c-0.239-0.513-0.484-1.016-0.73-1.511c-0.246-0.499-0.492-1.004-0.731-1.507c0.055-0.141,0.104-0.279,0.157-0.42l0,0
	c0.148-0.401,0.304-0.796,0.452-1.186c0.217-0.544,0.438-1.073,0.668-1.586c0.008-0.021,0.015-0.042,0.025-0.064
	c0.084-0.239,0.18-0.47,0.289-0.685c0.337,0.407,0.677,0.813,1.012,1.225c0.17,0.206,0.339,0.416,0.501,0.63
	c0.322,0.423,0.806,0.678,1.443,0.759c0.189,0.024,0.376,0.035,0.567,0.035c0.603,0,1.25,0.007,1.854,0.018
	c0.016,0,0.026,0.009,0.038,0.021c0,0.003,0,0.063,0,0.068c0,0.138,0,15.769,0,15.769h2.328"/>
</svg>
