<?xml version="1.0" encoding="utf-8"?>
<!-- Generator: Adobe Illustrator 16.0.0, SVG Export Plug-In . SVG Version: 6.00 Build 0)  -->
<!DOCTYPE svg PUBLIC "-//W3C//DTD SVG 1.1//EN" "http://www.w3.org/Graphics/SVG/1.1/DTD/svg11.dtd">
<svg version="1.1" id="Layer_1" xmlns="http://www.w3.org/2000/svg" xmlns:xlink="http://www.w3.org/1999/xlink" x="0px" y="0px"
	 width="20px" height="30px" viewBox="296 304.5 20 30" enable-background="new 296 304.5 20 30" xml:space="preserve">
<g display="none">
	<path display="inline" d="M519.82,172.889H92.18c-3.348,0-6.108,2.729-6.108,6.102v281.006c0,3.384,2.76,6.113,6.108,6.113h427.635
		c3.396,0,6.107-2.729,6.107-6.113V178.991C525.929,175.619,523.211,172.889,519.82,172.889z M512.715,298.625H99.328v-61.078
		h413.387V298.625z"/>
</g>
<g display="none">
	<path display="inline" d="M526.197,240.821c0-64.113-50.539-114.561-112.815-114.561c-50.288,0-92.828,34.646-107.4,81.458
		c-14.584-46.806-57.124-80.251-107.412-80.251c-62.289,0-112.779,49.009-112.779,113.146c0,32.362,12.895,55.227,33.648,79.694
		h-0.3l186.948,192.425l186.923-192.425h-0.489C513.291,295.84,526.197,273.159,526.197,240.821z"/>
</g>
<g>
	<path fill="#4E00FF" d="M306,304.5c-5.522,0-10,4.477-10,10c0,5.522,10,20,10,20s10-14.479,10-20
		C316,308.977,311.522,304.5,306,304.5z M306,319.708c-2.762,0-5-2.237-5-4.999c0-2.762,2.238-5,5-5c2.761,0,5,2.238,5,5
		C311,317.471,308.761,319.708,306,319.708z"/>
</g>
<g display="none">
	<polygon display="inline" points="526.21,209.566 526.21,99.492 526.21,99.468 416.117,99.468 416.117,99.468 159.2,99.468 
		159.2,209.566 311.942,209.566 85.79,435.719 189.598,539.532 416.117,313.025 416.117,466.484 526.21,466.484 	"/>
</g>
<g display="none">
	<polygon display="inline" points="379.508,99.835 232.695,99.835 330.584,246.654 85.888,246.654 85.888,393.442 330.572,393.442 
		232.695,540.255 379.508,540.255 526.32,320.032 	"/>
</g>
</svg>
